<svg width="20" height="18" viewBox="0 0 20 18" fill="none" xmlns="http://www.w3.org/2000/svg">
<mask id="mask0" mask-type="alpha" maskUnits="userSpaceOnUse" x="0" y="0" width="20" height="18">
<path fill-rule="evenodd" clip-rule="evenodd" d="M14.3024 6.82498H18.4697C18.9482 6.82498 19.3397 7.21648 19.3397 7.69498L19.3136 7.92988L17.1038 15.9948C16.895 16.7256 16.2251 17.265 15.4247 17.265H4.11471C3.31431 17.265 2.64441 16.7256 2.44431 15.9948L0.234507 7.92988C0.208407 7.85158 0.199707 7.77328 0.199707 7.69498C0.199707 7.21648 0.591207 6.82498 1.06971 6.82498H5.23701L9.04761 1.12648C9.21291 0.87418 9.49131 0.75238 9.76971 0.75238C10.0481 0.75238 10.3265 0.87418 10.4918 1.11778L14.3024 6.82498ZM12.2057 6.82498L9.76971 3.17098L7.33371 6.82498H12.2057ZM15.4247 15.525L4.12341 15.5337L2.20941 8.56498H17.3387L15.4247 15.525ZM8.02971 12.045C8.02971 11.088 8.81271 10.305 9.76971 10.305C10.7267 10.305 11.5097 11.088 11.5097 12.045C11.5097 13.002 10.7267 13.785 9.76971 13.785C8.81271 13.785 8.02971 13.002 8.02971 12.045Z" fill="white"/>
</mask>
<g mask="url(#mask0)">
<rect x="-2" y="-3" width="24" height="24" fill="#66788A"/>
</g>
</svg>
