<svg width="17" height="17" viewBox="0 0 17 17" fill="none" xmlns="http://www.w3.org/2000/svg">
<mask id="mask0" mask-type="alpha" maskUnits="userSpaceOnUse" x="0" y="0" width="17" height="17">
<path fill-rule="evenodd" clip-rule="evenodd" d="M11.3819 10.6918H12.1498L17 15.5517L15.5517 17L10.6918 12.1498V11.3819L10.4294 11.1098C9.32133 12.0623 7.88279 12.6358 6.3179 12.6358C2.82847 12.6358 0 9.80732 0 6.3179C0 2.82847 2.82847 0 6.3179 0C9.80732 0 12.6358 2.82847 12.6358 6.3179C12.6358 7.88279 12.0623 9.32133 11.1098 10.4294L11.3819 10.6918ZM2 6.5C2 8.99 4.01 11 6.5 11C8.99 11 11 8.99 11 6.5C11 4.01 8.99 2 6.5 2C4.01 2 2 4.01 2 6.5Z" fill="white"/>
</mask>
<g mask="url(#mask0)">
<rect x="-3" y="-3" width="24" height="24" fill="#9EA0A5"/>
</g>
</svg>
